<svg version="1.2" xmlns="http://www.w3.org/2000/svg" viewBox="0 0 486 369" width="500" height="380">
	<style>
		.s0 { fill: #723401 } 
		.s1 { fill: #127854 } 
		.s2 { fill: #976c40 } 
		.s3 { fill: #f6f6e9 } 
	</style>
	<g id="Gemini_Generated_Image_vwankovwankovwan">
		<path id="Path 1" fill-rule="evenodd" class="s0" d="m300 109c0.55 0 0.24 1.46-0.68 3.25-0.98 1.89-2.01 7.23-2.46 12.75-0.42 5.22-1.35 11.48-2.07 13.9-0.78 2.65-2.68 5.65-4.79 7.56-1.93 1.74-6.09 4.15-9.25 5.35-4.16 1.58-11.35 2.74-26 4.17-13.71 1.33-20.98 2.46-22.5 3.5-1.24 0.83-2.47 2.2-2.75 3.02-0.28 0.82 0.06 2.2 0.75 3.04 1.08 1.34 5.58 1.55 33.25 1.53 27.73-0.02 33.07 0.23 40 1.84 4.4 1.02 10.48 2.82 13.5 4 3.02 1.18 7.3 3.2 9.5 4.48 2.2 1.29 5.93 4.54 8.29 7.22 2.76 3.15 4.81 6.76 5.75 10.14 0.8 2.89 1.45 6.49 1.44 8-0.01 1.51-0.53 4.55-1.16 6.75-0.64 2.2-2.99 6.41-5.24 9.37-2.24 2.95-7.23 7.74-11.08 10.64-3.85 2.91-10.15 6.89-14 8.85-3.85 1.97-9.48 4.52-12.5 5.68-3.02 1.16-8.87 2.75-13 3.53-4.12 0.79-10.87 1.44-15 1.44-4.12 0.01-9.04-0.33-10.92-0.75-2.98-0.66-3.79-1.55-6.14-6.76-1.49-3.3-4.67-7.94-7.07-10.32-2.41-2.37-6.62-5.4-9.37-6.74-2.75-1.33-7.47-2.89-10.5-3.46-3.74-0.71-7.57-0.72-12-0.04-3.57 0.56-9.2 1.93-12.5 3.05-3.3 1.13-8.03 3.04-10.5 4.25-4.13 2.02-5.71 2.18-19 1.88-11.04-0.24-15.93 0.07-20.5 1.3-3.3 0.89-7.01 2.51-8.25 3.6-1.48 1.3-2.16 2.91-2 4.71 0.16 1.73 1.16 3.2 2.75 4.04 1.69 0.89 4.44 1.12 8.5 0.72 3.3-0.32 10.72-1.9 16.5-3.5 5.78-1.6 14.32-4.54 19-6.53 4.68-2 11.65-4.79 15.5-6.22 5.39-2 8.95-2.61 15.5-2.67 7.49-0.06 9.27 0.29 15 2.99 4.3 2.03 7.75 4.57 10.19 7.5 2.03 2.44 4.43 6.46 5.32 8.94 0.9 2.48 1.71 6.98 1.8 10 0.12 4.13-0.5 6.87-2.49 11-2 4.16-4.67 7.22-10.98 12.56-4.96 4.19-10.07 9.67-12.61 13.5-2.77 4.17-4.49 8.02-4.87 10.94-0.33 2.48-0.34 6.07-0.02 8 0.36 2.11 1.8 4.59 3.63 6.25 1.66 1.51 4.94 3.29 7.28 3.96 2.39 0.68 9.73 1.18 16.75 1.14 7.86-0.05 15.47-0.72 20.5-1.82 4.4-0.95 10.02-2.69 12.5-3.87 2.48-1.17 6.28-3.94 8.45-6.15 2.17-2.2 4.82-6.03 5.88-8.51 1.61-3.72 1.8-5.54 1.12-10.5-0.45-3.3-0.76-8.02-0.69-10.5 0.1-3.5 0.75-5.12 2.93-7.29 1.55-1.53 4.38-3.2 6.31-3.72 1.93-0.51 7.77-0.67 13-0.34 6.87 0.43 10.52 0.22 13.19-0.78 3.47-1.29 3.9-1.22 7.5 1.26 2.09 1.44 6.16 3.92 9.02 5.5 2.87 1.58 5.68 3.88 6.25 5.12 0.57 1.24 1.06 3.26 1.07 4.5 0.02 1.24-0.8 3.38-1.82 4.75-1.03 1.38-4.31 3.74-7.29 5.26-4.66 2.37-6.62 2.76-13.92 2.77-4.68 0-9.05 0.33-9.72 0.74-0.67 0.4-2.13 3.32-3.25 6.48-1.12 3.16-2.02 6.31-2 7 0.01 0.69-1.55 4.4-3.48 8.25-2.06 4.13-6.07 9.69-9.77 13.57-3.46 3.61-8.53 8.45-16.28 14.92l43 0.02c23.65 0.01 43.5 0.35 44.1 0.76 0.61 0.4 1.59 1.63 2.18 2.73 0.8 1.47 0.76 2.67-1.34 7l-129.47 0.26c-122.54 0.24-129.54 0.16-130.74-1.5-0.69-0.97-1.26-2.55-1.25-3.51 0.01-0.96 0.92-2.65 2.02-3.75 1.94-1.94 3.38-2 49.25-2.06 43.56-0.06 46.98-0.19 43.75-1.62-1.93-0.85-6.43-2.95-10-4.65-3.99-1.91-8.86-5.43-12.63-9.14-5.09-5-6.42-7.05-7.86-12.03-1.64-5.69-1.64-6.36 0.02-13 0.96-3.85 3.1-10.37 4.76-14.5 1.66-4.12 5.19-10.87 7.84-15 2.65-4.12 4.83-8.29 4.84-9.25 0.02-0.96-0.53-1.94-1.22-2.17-0.69-0.23-3.05-0.01-5.25 0.48-2.2 0.5-9.85 2.35-17 4.12-11.37 2.82-14.69 3.22-26.5 3.24-12.15 0.01-14-0.23-18.5-2.36-2.75-1.3-8.1-5.34-11.89-8.96-5.01-4.79-7.71-8.38-9.87-13.1-2.64-5.75-2.93-7.3-2.52-13.5 0.29-4.36 1.25-8.51 2.54-11 1.15-2.2 4.26-6.18 6.91-8.84 2.66-2.67 7.76-6.8 11.33-9.18 3.57-2.39 9.2-5.54 12.5-7.01 3.3-1.47 9.38-3.55 13.5-4.62 5.48-1.43 11-1.97 20.5-2.02 8.28-0.04 16.27 0.55 22 1.64 4.95 0.93 15.53 3.94 23.5 6.67 7.98 2.74 18.78 6.48 24 8.32 5.23 1.83 13.32 3.87 18 4.52 5.02 0.71 11.57 0.91 16 0.51 4.13-0.38 10.88-1.75 15-3.03 4.13-1.29 8.74-3.27 10.25-4.4 1.99-1.49 2.76-2.95 2.78-5.31 0.02-1.79-0.8-4.37-1.83-5.75-1.03-1.37-3.86-3.34-6.28-4.37-3.57-1.51-8.54-2.03-25.92-2.73-11.82-0.47-27.8-1.32-35.5-1.89-7.7-0.57-15.8-1.32-18-1.67-2.2-0.34-5.57-1.28-7.5-2.07-1.92-0.8-4.78-2.65-6.34-4.11-1.56-1.46-3.7-4.35-4.75-6.41-1.05-2.06-1.91-4.65-1.91-5.75 0-1.1 0.84-3.69 1.87-5.75 1.03-2.06 3.39-5.12 5.25-6.8 1.86-1.68 6.08-4.08 9.38-5.33 3.3-1.25 9.6-3.15 14-4.21 4.4-1.07 14.75-2.39 23-2.92 8.25-0.54 18.6-1.37 23-1.83 4.4-0.47 9.56-1.59 11.46-2.49 1.9-0.9 4.23-2.88 5.18-4.4 0.94-1.53 3.2-7.27 5-12.77 1.81-5.5 4.09-10.79 5.07-11.75 0.99-0.96 2.24-1.75 2.79-1.75zm-182.79 262.8l8.82 0.35c7.02 0.28 9.4 0.78 11.65 2.44 1.55 1.15 3.59 3.62 4.52 5.5 0.94 1.87 1.73 4.65 1.75 6.16 0.03 1.51-0.81 4.44-1.85 6.5-1.05 2.06-3.3 4.54-5 5.5-2.28 1.29-5.35 1.75-20.1 1.75zm125.04 0.2c2.07 0 5.33 0.67 7.25 1.5 1.93 0.82 3.5 1.95 3.5 2.5 0 0.55-0.33 0.98-0.75 0.97-0.41-0.02-1.65-0.7-2.75-1.52-1.13-0.84-4.1-1.48-6.85-1.47-4.21 0.02-5.29 0.48-8.25 3.52-2.94 3.03-3.4 4.17-3.4 8.5 0 4.11 0.54 5.62 3 8.5 2.19 2.55 3.81 3.5 6 3.5 1.65 0 3 0.45 3 1 0 0.55-1.23 0.99-2.75 0.97-1.51-0.02-4.1-0.87-5.75-1.88-1.65-1.02-3.78-3.71-4.75-5.97-1.3-3.06-1.55-5.23-1-8.43 0.42-2.37 1.29-5.15 1.94-6.18 0.66-1.03 2.68-2.69 4.5-3.69 1.82-1 5-1.82 7.06-1.82zm19.96-0.2l8.79 0.35c7.1 0.28 9.21 0.73 10.93 2.35 1.18 1.1 2.13 3.12 2.11 4.5-0.01 1.37-0.68 3.4-1.49 4.5-1.33 1.82-1.24 2.21 0.99 4.25 1.57 1.43 2.46 3.34 2.46 5.25 0 2.11-0.81 3.6-2.75 5.03-2.31 1.71-4.23 2.03-21.25 1.97zm106.15 2.2c0.76 0 1.3 0.98 1.25 2.25-0.09 1.84 0.48 2.29 3.15 2.5 1.78 0.14 3.25 0.7 3.25 1.25 0 0.55-1.43 1.11-6.36 1.5l-0.32 7.25c-0.29 6.59-0.12 7.39 1.93 8.76 1.23 0.83 3.03 1.28 4 1 0.96-0.28 1.75-0.06 1.75 0.49 0 0.55-1.58 1-3.5 1-2.97 0-3.73-0.49-5.02-3.25-0.87-1.85-1.52-5.95-1.5-9.5 0.01-5.59-0.19-6.25-1.98-6.25-1.1 0-2-0.45-2-1 0-0.55 0.9-1 2-1 1.46 0 2-0.67 2-2.5 0-1.43 0.57-2.5 1.35-2.5zm-208.6 5.04c2.21-0.03 4.17 0.84 6.15 2.71 1.6 1.51 3.17 3.99 4.1 8.25h-9.5c-7.78 0-9.5 0.27-9.5 1.5 0 0.82 1.01 2.67 2.25 4.11 1.68 1.96 3.27 2.65 6.34 2.75 2.26 0.08 4.84-0.42 5.75-1.11 1.04-0.79 1.84-0.88 2.16-0.25 0.27 0.55-0.4 1.45-1.5 2-1.1 0.55-4.03 1-6.5 1-3.67 0-5.06-0.56-7.5-3-2.34-2.34-3-3.89-3-7 0-2.2 0.45-4.9 1-6 0.55-1.1 2.23-2.66 3.75-3.46 1.51-0.8 4.21-1.48 6-1.5zm24.26-0.04c1.64 0 4.22 0.62 5.74 1.38 1.51 0.76 3.31 2.56 4 4 0.68 1.44 1.25 3.29 1.25 4.12 0 1.16-1.19 1.47-5.25 1.36-5.14-0.14-5.17-0.16-1.25-0.75 3.28-0.5 3.94-0.97 3.69-2.61-0.17-1.1-1.18-2.79-2.24-3.75-1.06-0.96-3.4-1.76-5.19-1.77-1.89-0.01-4.21 0.83-5.51 2-1.24 1.11-2.25 2.92-2.25 4.02 0 1.61 0.72 2.03 7.5 2.33l-3.75 0.34c-2.98 0.26-3.75 0.74-3.75 2.33 0 1.1 0.9 2.9 2 4 1.1 1.1 2.67 2 3.5 2 0.82 0 1.5 0.45 1.5 1 0 0.55-0.9 1-2 1-1.1 0-3.41-1.69-5.13-3.75-2.71-3.24-3.06-4.29-2.57-7.75 0.4-2.76 1.53-4.86 3.65-6.75 1.9-1.7 4.22-2.75 6.06-2.75zm18.99 0c0.55 0 1 0.9 1 2 0 1.98 0.02 1.98 2.75-0.08 1.51-1.14 3.65-1.89 4.75-1.68 1.61 0.32 1.27 0.72-1.75 2.08-2.07 0.92-4.2 2.58-4.75 3.68-0.55 1.1-1.02 3.24-1.04 4.75-0.02 1.51 0.88 3.99 2 5.5 1.12 1.51 2.8 2.75 3.74 2.75 1.32 0 1.43 0.28 0.52 1.25-0.94 0.99-1.54 0.9-2.95-0.48-0.98-0.95-2.11-1.73-2.52-1.75-0.42-0.01-0.75 2.45-0.75 5.48 0 3.02-0.45 5.5-1 5.5-0.62 0-1-5.5-1-14.5 0-9 0.38-14.5 1-14.5zm98.25 0.03c1.51-0.02 4.1 0.64 5.75 1.47 1.65 0.82 3.45 2.4 4 3.5 0.55 1.1 1 3.69 1.01 5.75 0.01 2.61-0.83 4.78-2.75 7.16-2.11 2.61-3.24 3.25-4.76 2.72-1.79-0.62-1.63-0.89 1.5-2.53 3.24-1.69 3.52-2.21 3.75-6.97 0.22-4.5-0.07-5.38-2.35-7.13-1.43-1.1-4.01-2.02-5.75-2.04-1.73-0.03-4.22 0.76-5.52 1.75-1.85 1.39-2.4 2.81-2.5 6.43-0.1 3.39 0.41 5.22 1.87 6.79 1.1 1.17 2.56 2.12 3.25 2.1 0.68-0.02 1.25 0.42 1.25 0.97 0 0.55-0.45 1-1 1-0.55 0-1.9-0.45-3-1-1.1-0.55-2.68-2.35-3.5-4-0.83-1.65-1.49-4.24-1.47-5.75 0.02-1.51 0.74-3.83 1.59-5.14 0.86-1.32 2.53-2.99 3.72-3.72 1.18-0.73 3.39-1.34 4.91-1.36zm26.5-0.04c1.78 0 4.26 0.47 5.5 1.03 1.23 0.56 3.03 2.36 4 4 0.96 1.64 1.75 4.55 1.75 6.48 0 2.55-0.81 4.31-3 6.5-2.54 2.53-3.78 3-8 3-4 0-5.5-0.5-7.5-2.5-1.38-1.38-2.78-3.96-3.11-5.75-0.38-2.07-0.02-4.43 1-6.5 0.88-1.79 2.62-3.93 3.86-4.76 1.23-0.83 3.71-1.5 5.5-1.5zm26.25 0.43c2.47 0.28 4.72 0.75 5 1.04 0.27 0.3 0.27 0.8 0 1.11-0.28 0.32-2.19 0.09-4.25-0.5-2.99-0.85-4.26-0.77-6.25 0.43-1.38 0.82-2.5 2.4-2.5 3.5 0 1.58 1.2 2.34 5.75 3.62 3.16 0.89 6.33 2.13 7.04 2.75 0.71 0.62 1.28 2.37 1.25 3.88-0.03 1.72-0.79 3.12-2.04 3.75-1.1 0.55-4.14 0.99-6.75 0.98-2.62-0.01-5.43-0.43-6.25-0.94-0.83-0.51-1.28-1.16-1-1.45 0.27-0.29 2.07-0.09 4 0.42 1.92 0.52 4.85 0.59 6.5 0.15 2.24-0.6 3-1.39 3-3.12 0-1.28-0.68-2.66-1.5-3.08-0.83-0.41-3.75-1.39-6.5-2.16-4.76-1.33-5-1.57-5-4.82 0-2.63 0.57-3.73 2.5-4.74 1.52-0.81 4.25-1.13 7-0.82zm-137.75 0.6c0.96-0.01 2.65 0.88 3.75 1.98 1.24 1.24 1.75 2.66 1.36 3.75-0.59 1.6-0.73 1.58-1.63-0.25-0.55-1.1-1.95-2.78-3.11-3.73-1.85-1.51-1.9-1.73-0.37-1.75zm6.58 8.17c0.22 0.72 0.12 2.77-0.22 4.56-0.34 1.79-1.63 4.16-2.86 5.27-1.24 1.11-3.04 2.01-4 2-0.97-0.01-1.75-0.47-1.75-1.02 0-0.55 0.67-1 1.5-1 0.82 0 2.62-1.58 4-3.5 1.37-1.93 2.29-4.06 2.05-4.75-0.25-0.69-0.15-1.62 0.21-2.06 0.37-0.45 0.85-0.23 1.07 0.5zm29.17-1.19c0.55 0 1 2.47 1 5.5 0 5.08-0.21 5.58-2.75 6.55q-2.75 1.06-4.75 0.07c-1.86-0.92-1.83-0.99 0.55-1.05 1.4-0.04 3.09-0.63 3.76-1.32 0.67-0.69 1.21-3.16 1.2-5.5-0.01-2.34 0.44-4.25 0.99-4.25zm13.5 28.27c2.75 0 3.98 0.16 2.75 0.36-1.98 0.32-2.28 1.02-2.62 10.87l-0.32-5.25c-0.27-4.55-0.61-5.3-2.56-5.62-1.24-0.2 0-0.36 2.75-0.36z"/>
		<path id="Path 2" fill-rule="evenodd" class="s1" d="m261.87 19c1.24 0 3.28 1.46 4.88 3.5 1.65 2.09 3.95 3.72 5.75 4.07 2.38 0.45 4.34-0.29 16-7.72l3 2.26c1.65 1.24 4.27 3.19 5.83 4.32 2.33 1.7 4.1 2.03 10 1.84 4.58-0.15 7.65 0.22 8.49 1 1.05 0.98 2.13 0.92 5.23-0.27 3.47-1.33 4.2-1.33 6.55 0 1.46 0.83 5.23 3.75 8.37 6.5 3.83 3.35 7.66 5.63 11.62 6.9 3.25 1.05 7.71 1.95 9.91 2 2.2 0.06 6.02-0.24 13-1.41l-3.03 2.76c-1.67 1.51-4.6 3.97-6.5 5.45-2.9 2.26-3.14 2.72-1.47 2.79 1.1 0.05 4.81-1.73 8.25-3.95 3.44-2.22 7.04-3.92 8-3.78 1.15 0.17 2.37 2.16 3.55 5.75 0.99 3.02 2.56 6.44 3.5 7.6 0.93 1.16 3.66 4.53 6.06 7.5 3.9 4.83 4.29 5.78 3.75 9.14-0.49 3.01-0.27 3.88 1.14 4.39 0.96 0.35 3.21-0.1 5-1 1.79-0.9 4.6-1.64 6.25-1.64 2.61 0 3 0.36 2.99 2.75-0.01 1.51-0.8 5.28-1.75 8.38-0.96 3.1-2.64 6.59-5.74 9.9l2 1.52c1.1 0.84 3.01 1.95 4.25 2.48 1.24 0.54 3.49 0.97 5 0.97 1.51 0.01 4.89-0.78 7.5-1.75 4.22-1.56 4.92-1.58 6.27-0.25 0.9 0.88 2.36 6.43 3.56 13.5 1.33 7.87 3.07 14.24 5.06 18.5 2.65 5.69 2.98 7.38 2.67 13.5-0.23 4.62-1.07 8.36-2.46 11-1.15 2.2-3.06 5.91-6.35 12.5h-21l-0.75 2.65c-0.41 1.46-1.65 3.27-2.75 4.01-1.1 0.75-3.91 1.35-6.25 1.35-3.48-0.01-5.34-0.83-16.25-9.01l-4 2c-2.2 1.1-4.9 2-6 2-1.1 0-2.79-0.51-3.75-1.14-1.42-0.92-3.26-0.38-9.75 2.85-4.4 2.19-9.8 4.32-12 4.73-3.21 0.6-5.09 0.25-9.5-1.76-3.02-1.38-7.75-4.62-10.5-7.21-4.42-4.16-5.37-4.63-8.25-4.08-1.79 0.33-5.32 0.05-7.86-0.64-3.33-0.9-5.1-2.08-6.38-4.25-0.98-1.65-2.61-3.35-3.64-3.78-1.18-0.49-2.16-0.3-2.65 0.5-0.43 0.71-1.22 2.07-1.75 3.03-0.54 0.96-2.1 1.75-3.47 1.75-1.52 0-3.87-1.37-6-3.5-2.67-2.67-3.14-3.62-2-4 0.82-0.28 2.86-0.16 4.52 0.25 2.77 0.69 3.02 0.54 2.98-1.75-0.03-1.46 1.05-3.54 2.61-5 1.46-1.38 3.56-4.53 4.66-7 1.29-2.9 2.32-8.41 2.92-15.5 0.53-6.38 1.53-11.94 2.36-13.25 0.8-1.24 1.34-3.49 1.2-5-0.21-2.36-0.75-2.8-3.75-3.07-2.79-0.26-4.11 0.27-6.5 2.64-2.14 2.13-3.81 5.65-5.85 12.33-1.57 5.14-3.85 10.7-5.08 12.35-1.46 1.97-3.75 3.4-6.65 4.17-2.43 0.65-11.4 1.68-19.92 2.29-8.53 0.61-19.1 1.57-23.5 2.13-4.4 0.56-11.38 1.95-15.5 3.1-4.13 1.14-9.41 2.91-11.75 3.94-2.34 1.03-6.12 3.56-8.41 5.62-2.28 2.06-4.97 5.55-5.97 7.75-1.01 2.2-1.84 5.69-1.85 7.75-0.02 3.5-0.22 3.75-3.02 3.75q-3 0-4.48-2.25c-0.81-1.24-2.05-4.86-2.75-8.06-1.13-5.17-1.08-6.13 0.48-8.75 1.74-2.92 1.72-2.98-1.84-8.69-1.98-3.16-5.24-7.2-10.91-12.19l2.22-4.28c1.23-2.35 3.4-5.41 4.83-6.78 1.43-1.38 5.61-4.31 9.28-6.51 4.15-2.5 6.78-4.77 6.95-6 0.25-1.81-0.2-1.95-5-1.6-4.84 0.35-5.47 0.15-7.56-2.5-1.26-1.59-2.27-3.68-2.25-4.64 0.01-0.96 1.41-2.76 3.1-4 2.73-2.01 3.03-2.74 2.51-11.25l7.46-0.13c4.1-0.07 8.02-0.18 8.71-0.25 0.69-0.07 1.99-2.48 2.89-5.37 1.56-4.97 1.55-5.52-0.25-10.46-1.87-5.16-1.87-5.24 0.11-7.33 1.79-1.89 2.75-2.05 16.5-0.96l7-14 5.75 3.06c3.18 1.69 6.86 2.92 8.24 2.75 1.46-0.18 2.6-1.04 2.75-2.06 0.14-0.96-0.66-2.99-1.77-4.5-1.12-1.51-2.02-4.21-2-6 0.02-2.71 0.48-3.35 2.78-3.88 1.54-0.36 6.55-4.32 11.37-9 5.33-5.18 9.43-8.37 10.75-8.37zm-142.28 81c1.05 0 3.6 1.8 5.66 4 2.26 2.41 4.64 3.99 6 3.97 1.24-0.01 5.18-1.86 15.25-8.17l6 4.29c5.76 4.11 6.27 4.28 12.75 4.1 3.71-0.11 7.54 0.21 8.5 0.7 0.96 0.49 3.1 1.44 7.75 3.33l-2.5 1.59c-1.37 0.88-4.5 3.64-6.94 6.14-2.44 2.5-5.25 6.46-6.25 8.8-1.63 3.83-1.66 4.5-0.31 6.75 0.82 1.37 2.29 2.89 3.25 3.36 0.96 0.47 3.26 3.28 5.11 6.25 3.22 5.17 3.3 5.55 2.06 9.39-1.12 3.44-1.06 4.9 0.45 10.5 1.01 3.72 2.81 7.57 4.22 9 1.9 1.93 3.48 2.5 6.94 2.5 3.14 0 4.62 0.45 4.92 1.5 0.23 0.82 2.61 3.53 5.28 6 3.42 3.16 6.64 5.03 10.82 6.29 4.38 1.32 13.36 2.17 33.95 3.24 15.4 0.8 32.95 1.89 39 2.41 8.21 0.71 11.63 1.43 13.5 2.85 1.37 1.05 2.65 2.77 2.83 3.81 0.2 1.17-0.67 2.58-2.25 3.65-1.42 0.96-6.07 2.68-10.33 3.81-5.07 1.34-10.86 2.06-16.75 2.06-4.95 0.01-12.15-0.66-16-1.48-3.85-0.82-14.2-4.18-23-7.46-8.8-3.27-20.72-7.12-26.5-8.54-5.78-1.43-14.32-3.05-19-3.62-4.68-0.56-10.97-1.03-14-1.03-3.03 0-9.78 0.73-15 1.62-5.22 0.89-12.65 2.87-16.5 4.39-3.85 1.52-9.47 4.23-12.5 6.01-3.03 1.78-8.14 5.32-11.36 7.87-3.22 2.54-7.3 6.65-9.06 9.12-1.76 2.47-3.93 6.3-4.82 8.5-0.9 2.2-1.88 5.57-2.19 7.5-0.3 1.93-0.15 5.98 0.36 9 0.5 3.02 1.26 6.4 1.69 7.5 0.75 1.92 0.68 1.93-1.67 0.37-1.53-1.02-2.36-2.43-2.2-3.75 0.15-1.28-0.64-2.72-2-3.63-1.24-0.83-3.49-1.5-5-1.5-2.08 0.01-2.75 0.5-2.75 2.01 0 1.16 2 3.69 4.75 6.01 2.61 2.21 6.5 4.58 8.63 5.25 2.17 0.69 4.71 2.46 7.62 6.74l-5.25 2.95c-4.74 2.67-5.44 2.81-7.25 1.5-1.1-0.81-3.01-2.14-4.25-2.96-2-1.32-2.53-1.32-4.75 0.01-1.38 0.82-3.29 1.52-4.25 1.54-0.96 0.02-3.44-1.56-5.5-3.5-2.06-1.95-4.31-3.54-5-3.53-0.69 0-0.24-0.67 1-1.5 1.24-0.83 2.25-2.41 2.25-3.51 0-1.78-0.68-2-6.25-2.04-3.52-0.02-7.34-0.65-8.75-1.46-1.38-0.79-3.63-1.43-5-1.42-1.38 0-3.96 1.33-5.75 2.96-3.03 2.76-3.47 2.87-6.44 1.71-2.05-0.81-3.65-2.4-4.5-4.5-0.72-1.79-1.6-5.16-1.96-7.5-0.47-3.12-0.18-5.05 2.81-10.25l-4.33-6.42c-2.38-3.52-5.61-7.35-10.02-10.58l1.73-3.5c0.96-1.93 2.96-5.07 4.47-7 1.5-1.93 5.15-4.8 8.11-6.39 2.96-1.59 6.4-3.84 7.66-5 1.25-1.16 2.26-2.67 2.25-3.36-0.02-0.69-0.81-1.05-1.78-0.8-0.96 0.25-3.1 0.74-4.75 1.09-2.45 0.53-3.51 0.12-5.77-2.2-1.53-1.56-2.74-3.77-2.7-4.9 0.04-1.14 1.43-3.39 3.08-5 2.53-2.46 2.97-3.59 2.39-10.94h8.29c6.27 0 8.52-0.36 9.24-1.5 0.53-0.82 1.41-3.07 1.96-5 0.55-1.93 1-4.18 1-5 0-0.82-0.69-2.85-1.53-4.5-0.84-1.65-1.53-3.9-1.53-5-0.01-1.32 1.12-2.48 3.28-3.4 2.52-1.07 4.47-1.17 8.29-0.42 4.15 0.81 5.24 0.71 6.39-0.6 0.76-0.87 2.67-4.17 7.11-13.08l3.25 1.97c1.79 1.08 4.83 2.43 6.75 2.99 1.92 0.57 4.29 0.81 5.25 0.54 0.96-0.28 1.75-1.18 1.75-2 0-0.82-0.92-2.74-2.03-4.25-1.12-1.51-2.03-3.88-2.02-5.25 0.01-1.38 0.56-3.06 1.23-3.75 0.67-0.69 1.96-1.25 2.86-1.25 0.9 0 5.47-3.82 10.14-8.5 4.74-4.73 9.35-8.5 10.41-8.5zm154.89 58c0.83 0 1.75 0.68 2.02 1.5 0.27 0.82 0.5 1.95 0.5 2.5 0 0.55-0.9 1-2 1-1.1 0-2.23-0.45-2.5-1-0.27-0.55-0.29-1.68-0.02-2.5 0.26-0.82 1.16-1.5 2-1.5zm-9.73 1.11c0.69-0.06 1.7 0.79 2.25 1.89 0.98 1.96 0.67 2-15.17 2-8.89 0-15.98-0.23-15.75-0.5 0.23-0.28 6.5-1.13 13.92-1.89 7.43-0.76 14.06-1.43 14.75-1.5zm-104.5 75.03c0.96-0.08 1.75 0.31 1.75 0.86 0 0.55 0.34 1.72 0.75 2.59 0.62 1.32 0.07 1.58-3.25 1.53-2.2-0.03-6.36 0.15-9.25 0.41-2.89 0.26-5.27 0.13-5.28-0.28-0.02-0.41 1.89-1.51 4.25-2.44 2.35-0.93 5.41-1.88 6.78-2.11 1.38-0.24 3.29-0.49 4.25-0.56zm97.41 18.25c0.74 0.34 2.47 0.61 3.84 0.61 1.56 0 2.5 0.57 2.5 1.5 0 0.82-1.01 2.18-2.25 3.01-1.24 0.83-3.04 1.5-4 1.5-1.37-0.01-1.72-0.79-1.59-3.62 0.11-2.62 0.52-3.44 1.5-3z"/>
		<path id="Path 3" fill-rule="evenodd" class="s2" d="m246 143.73c2.47 0.21 6.07 0.21 8 0 1.93-0.22-0.1-0.39-4.5-0.39-4.4 0.01-5.97 0.18-3.5 0.39zm44.92 1.9c-1.33 1.45-4.67 3.7-7.42 4.99-2.75 1.3-4.44 2.36-3.75 2.37 0.69 0.01 2.94-0.85 5-1.9 2.06-1.05 5.07-3.3 6.67-5 1.61-1.7 2.7-3.09 2.42-3.09-0.28 0-1.59 1.18-2.92 2.63zm-60.52 15.43c-1.48 1.61-1.66 2.43-0.8 3.75 0.65 1 2.49 1.73 4.5 1.78l3.4 0.09c-5.04-0.53-6.84-1.36-7.25-2.18-0.46-0.93-0.03-2.26 1.12-3.5 1.03-1.1 1.66-2 1.4-2-0.26 0-1.33 0.93-2.37 2.06zm48.1 5.68c2.75 0.2 7.48 0.2 10.5 0 3.02-0.2 0.77-0.37-5-0.37-5.77 0-8.25 0.17-5.5 0.37zm47 10.12c2.75 1.57 6.97 5.05 9.39 7.74 2.41 2.7 3.92 4 3.36 2.9-0.57-1.1-3.1-3.91-5.64-6.25-2.53-2.34-5.96-4.92-7.61-5.75-1.65-0.82-3.34-1.5-3.75-1.49-0.41 0 1.5 1.29 4.25 2.85zm-53 14.87c2.2 0.21 6.02 0.21 8.5 0 2.48-0.21 0.68-0.38-4-0.38-4.68 0-6.7 0.17-4.5 0.38zm63.3 27.02c-1.97 2.61-6.12 6.77-9.23 9.25-3.11 2.48-5.64 4.61-5.62 4.75 0.03 0.14 1.51-0.75 3.3-1.97 1.79-1.22 5.53-4.48 8.32-7.25 2.8-2.77 5.58-6.04 6.19-7.28 0.61-1.24 0.99-2.25 0.85-2.25-0.13 0-1.85 2.14-3.81 4.75zm-158.3 12.51c3.35 0.53 6.77 0.57 7.75 0.09 1.13-0.55-0.99-0.88-6-0.94l-7.75-0.09zm89 18.48c2.75 0.2 6.8 0.2 9-0.01 2.2-0.21-0.05-0.38-5-0.37-4.95 0-6.75 0.17-4 0.38zm-152.5 13.76c3.58 3.59 6.73 6.52 7 6.52 0.28 0-2.29-2.93-5.69-6.51-3.41-3.58-6.56-6.51-7-6.52-0.45 0 2.12 2.92 5.69 6.51zm137.09-4c-0.07 1.1-1.05 4.03-2.18 6.5-1.12 2.48-4.6 6.94-7.72 9.93l-5.69 5.42c8.85-7.3 12.11-11.18 13.83-14.46 1.56-2.97 2.62-6.29 2.37-7.39l-0.47-2zm-109.59 17.22c1.65 0.22 4.8 0.22 7 0.01 2.2-0.22 0.85-0.4-3-0.4-3.85-0.01-5.65 0.17-4 0.39zm224.92 6.88c-1.61 0.72-4.61 1.33-6.67 1.35-2.15 0.03-3.93-0.49-4.17-1.2-0.23-0.69-0.48 0.1-0.54 1.75-0.09 2.09-1.25 4.04-3.83 6.42-2.04 1.88-2.81 2.95-1.71 2.39 1.1-0.57 2.9-2.14 4-3.49 1.82-2.23 2.69-2.45 9.69-2.39 4.23 0.04 8.15-0.38 8.69-0.93q1-1-2.69-0.7l-3.69 0.3c3.87-3.21 4.74-4.29 4.42-4.47-0.32-0.18-1.89 0.26-3.5 0.97zm-44.07 15.17c-0.63 0.4 2.07 0.6 6 0.43 3.93-0.16 8.05-0.43 9.15-0.61 1.1-0.17-1.6-0.37-6-0.44-4.4-0.06-8.52 0.21-9.15 0.62zm-79.35 23.96c1.92 0.21 5.3 0.21 7.5 0 2.2-0.22 0.62-0.39-3.5-0.39-4.13 0-5.93 0.17-4 0.39zm-62.11 6.02c0.49 0.96 3.08 3.81 5.75 6.32 2.67 2.52 5.98 5.12 7.36 5.78l2.5 1.21c-3.88-2.67-7.59-6.05-10.75-9.25-3.16-3.2-5.35-5.02-4.86-4.06zm25.61 18.12c1.1 0.34-18.25 0.86-43 1.15l-45 0.51c88.17 0.37 93.69 0.22 91.5-1.03-1.38-0.79-3.18-1.39-4-1.35-0.91 0.05-0.71 0.33 0.5 0.72zm82.36 0.67c-1.23 1.39 2.93 1.52 41.64 1.27l43-0.29c-69.14-0.43-83.34-0.86-83.04-1.52 0.26-0.55 0.31-1 0.11-1-0.19 0-0.96 0.7-1.71 1.54zm87.59 9.69l-0.95 2.27-259 1.01c251.62 0.54 258.09 0.47 259.82-1.23 1.01-0.98 1.66-2.35 1.46-3.05-0.22-0.73-0.78-0.31-1.33 1zm-114.95 14.44c-0.46 0.36-0.76 7.11-0.67 15l0.17 14.33 19.5-0.42-18.5-0.58v-28l15.5-0.6c-11.76-0.31-15.54-0.1-16 0.27zm-145.05 14.33l0.05 14.5 16 0.12-15.5-0.62-0.59-28.5zm162.54-13.29c0.83 0.3 2.31 1.28 3.29 2.17 0.98 0.89 1.77 2.75 1.75 4.12-0.01 1.38-0.7 3.51-1.53 4.75-1.36 2.04-1.34 2.37 0.24 3.5 1.5 1.07 1.59 1.04 0.59-0.25-0.91-1.16-0.85-1.95 0.26-3.5 0.79-1.1 1.44-3.12 1.45-4.5 0-1.37-1.02-3.5-2.27-4.73-1.25-1.22-2.95-2.2-3.78-2.17-1.33 0.05-1.33 0.12 0 0.61zm-67.25 5.87c0.69 0.23 1.03 0.87 0.75 1.42-0.27 0.55 0.4 1.23 1.5 1.5 1.15 0.29 1.79 0.07 1.5-0.5-0.27-0.55 0.18-1 1-1 0.83 0 2.4 0.9 3.5 2 1.56 1.56 1.78 2.44 1 4-0.55 1.1-1 3.13-1 4.5 0 1.62 0.4 2.23 1.11 1.75 0.61-0.41 0.84-1.54 0.5-2.5-0.33-0.96-0.16-1.97 0.39-2.25 0.55-0.27 1 0.63 1 2 0 1.38-0.47 3.74-1.06 5.25-0.75 1.93-0.75 2.45 0 1.75 0.58-0.55 1.33-2.57 1.66-4.5 0.39-2.22 0.03-4.87-0.99-7.25-1.11-2.59-2.69-4.22-5.11-5.25-1.92-0.82-4.28-1.46-5.25-1.42-0.96 0.04-1.18 0.27-0.5 0.5zm-10.53 15.17c-0.2 14.03-0.08 15.23 1.53 14.99 1.38-0.2 1.81-1.39 2-5.5 0.23-4.78 0.41-5.13 2-3.99 1.6 1.14 1.63 1.1 0.25-0.54-0.82-0.99-1.83-1.78-2.25-1.75-0.41 0.02-0.75 2.52-0.75 5.54 0 3.03-0.45 5.5-1 5.5-0.61 0-1.11-5.77-1.28-14.75l-0.27-14.75zm4.23-9.53c-0.91 1.22-1.62 3.59-1.59 5.25 0.04 1.67 0.98 4.27 2.1 5.78 1.12 1.51 2.48 2.75 3.03 2.75 0.55 0-0.12-1.12-1.5-2.5-1.63-1.64-2.5-3.62-2.5-5.75-0.01-1.79 0.66-4.26 1.48-5.5 0.81-1.24 1.29-2.25 1.05-2.25-0.23 0-1.17 1-2.07 2.22zm106.36 4.63c0.17 2.56-0.17 5.1-0.77 5.65-0.75 0.7-1.09 0.24-1.13-1.5-0.04-2.49-0.04-2.49-0.98-0.25-0.51 1.24-1.95 2.93-3.19 3.76-1.23 0.83-1.91 1.5-1.5 1.5 0.42-0.01 1.88-0.68 3.25-1.51 1.38-0.82 2.49-1.16 2.48-0.75-0.01 0.41-0.58 1.45-1.25 2.31-0.67 0.85 0.01 0.29 1.52-1.25 2.12-2.16 2.78-3.84 2.86-7.25 0.05-2.44-0.28-4.65-0.75-4.91-0.47-0.25-0.71 1.64-0.54 4.2zm-61.82 2.15c0 4.24-0.34 5.14-2.25 5.94-1.4 0.58-1.66 0.96-0.7 1 0.86 0.03 2.1-0.5 2.77-1.19 0.67-0.69 1.21-3.16 1.2-5.5-0.01-2.34 0.43-4.25 0.98-4.25 0.59 0 0.9 2.47 0.75 5.91-0.13 3.25 0.09 5.72 0.5 5.5 0.42-0.23 0.75-3.11 0.75-6.41 0-5.33-0.22-6-2-6-1.73 0-2 0.67-2 5zm-65.5-3c-5.51 0.44-6.75 0.73-4 0.96l4 0.32c-6.82 1.26-5.2 1.44 1.49 1.35 8.71-0.12 9.51-0.29 9.7-2.13q0.22-2.14-0.24-0.25c-0.36 1.42-1.45 1.72-5.7 1.59-4.01-0.12-4.42-0.26-1.75-0.57 1.93-0.23 3.93-0.83 4.45-1.34 0.53-0.51 0.75-0.85 0.5-0.75-0.24 0.1-4.05 0.47-8.45 0.82zm106.01 3c0.28 2.91 1.19 5.21 2.58 6.5l2.16 2c-2.88-4.65-4.04-7.57-4.44-9.5-0.63-2.97-0.67-2.81-0.3 1zm-139.49 0.75q0.02 1.75 0.75 0.55c0.45-0.73 4.18-1.33 9.73-1.54l9-0.35c-18.45-0.39-19.49-0.22-19.48 1.34zm218.12 1.5c-0.07 1.51-0.59 2.53-1.14 2.25-0.55-0.27-1.01 0.06-1.03 0.75-0.02 0.69 0.77 2.05 1.75 3.03 1.18 1.17 2.97 1.68 5.28 1.5 2.43-0.2 3.57-0.81 3.75-2.03 0.14-0.96-0.2-1.75-0.75-1.75-0.56 0-0.67 0.7-0.25 1.61 0.64 1.36 0.14 1.55-3.24 1.25-3.03-0.27-4.08-0.84-4.38-2.36-0.35-1.83-0.23-1.87 1.49-0.5 1.68 1.33 1.76 1.33 0.73 0-0.63-0.82-1.36-2.62-1.61-4-0.45-2.45-0.47-2.45-0.6 0.25zm-178.68 3.44c-1.89 1.51-1.87 1.54 0.54 0.98 2.4-0.55 2.42-0.51 0.5 0.82-1.59 1.11-2.47 1.15-4.31 0.2-1.67-0.86-2.51-0.88-3-0.09-0.38 0.61-1.36 1.36-2.19 1.67-0.82 0.32 0.53 0.63 3 0.69 3.11 0.09 5.28-0.49 7-1.85 1.72-1.35 2.18-2.28 1.46-2.97q-1.04-1.02-3 0.55zm19.41 2.85c-1.21 1.37-0.85 1.53 3.13 1.39 2.48-0.09 3.72-0.33 2.75-0.55-0.96-0.21-1.75-0.83-1.75-1.38 0-0.55-0.62-1-1.38-1-0.77 0-2 0.7-2.75 1.54zm33.19-0.58c-0.03 0.57-1.29 1.2-2.81 1.39-1.51 0.19-0.27 0.43 2.75 0.53 3.03 0.1 5.28 0 5-0.22-0.27-0.21-1.48-0.92-2.69-1.56-1.43-0.76-2.21-0.81-2.25-0.14zm56.04 0.58c-1.21 1.27-0.83 1.46 3 1.48 4.13 0.01 4.28-0.08 2.4-1.47-1.1-0.82-2.45-1.48-3-1.48-0.55 0-1.63 0.66-2.4 1.47zm-184.99 21.4c-0.06 3.44 0.33 6.06 0.89 6.06 0.55 0 1.02-2.46 1.04-5.46 0.02-3.01-0.39-5.74-0.9-6.06-0.54-0.35-0.97 1.98-1.03 5.46zm6.66-4.71c0.7 0.7 1.26 2.06 1.25 3.02-0.01 1.11-1.2 2.08-3.27 2.66-3.08 0.86-3.11 0.91-0.57 1 1.48 0.05 3.39-0.58 4.25-1.41 0.87-0.82 1.58-2.06 1.59-2.75 0.01-0.69-0.55-1.82-1.25-2.52-0.7-0.69-1.72-1.26-2.27-1.26-0.55 0-0.43 0.57 0.27 1.26zm4.23-0.73c0 0.28 0.9 1.96 2 3.75 1.1 1.79 2 4.26 2 5.5 0 1.24 0.45 2.25 1 2.25 0.55 0 1-1.12 1-2.5 0-1.37-0.33-2.49-0.75-2.49-0.41 0.01-1.31-1.56-2-3.5-0.68-1.93-1.7-3.51-2.25-3.51-0.55 0-1 0.23-1 0.5zm30 2c0 2.26-0.35 2.48-3.7 2.25-3.66-0.25-3.7-0.21-3.93 3.75-0.19 3.44-0.12 3.58 0.46 1 0.57-2.5 1.23-3.04 3.93-3.25 2.86-0.22 3.24 0.05 3.24 2.25 0 1.38 0.45 2.73 1 3 0.62 0.31 1-1.83 1-5.5 0-3.33-0.44-6-1-6-0.55 0-1 1.13-1 2.5zm13.3-0.78c1.35 1.33 1.66 2.73 1.25 5.53-0.34 2.34-0.17 3.56 0.45 3.25 0.55-0.27 0.78-0.95 0.5-1.5-0.27-0.55-0.05-1 0.5-1 0.55 0 1.02-1.01 1.04-2.25 0.02-1.24-0.77-3.03-1.75-3.97-0.98-0.95-2.24-1.76-2.79-1.79-0.55-0.03-0.19 0.75 0.8 1.73zm5.7 3.78c0 3.03 0.45 5.73 1 6 0.58 0.29 1.11-1.45 1.25-4.13l0.25-4.62c5.04 7.17 6.95 9.03 7.5 8.75 0.55-0.27 1-2.97 1-6 0-3.02-0.45-5.5-1-5.5-0.55 0-0.98 1.91-0.97 4.25l0.03 4.25c-5.86-6.54-7.89-8.45-8.31-8.47-0.41-0.02-0.75 2.45-0.75 5.47zm24.25-4.54c0.97 0.57 1.75 1.94 1.75 3.04 0 1.1-0.67 2.23-1.5 2.5-0.82 0.28-2.17 0.5-3 0.5-0.95 0-1.61-1.17-1.82-3.25-0.18-1.79-0.31-0.55-0.31 2.75 0.01 3.3 0.15 4.99 0.32 3.75 0.24-1.72 1.05-2.31 3.46-2.5 1.74-0.14 3.65-1.04 4.25-2 0.81-1.27 0.8-2.23 0-3.5-0.61-0.96-1.96-1.88-3-2.04-1.75-0.26-1.77-0.21-0.15 0.75zm5.86 4.98c-0.06 3.44 0.33 6.06 0.89 6.06 0.55 0 1.02-2.46 1.04-5.46 0.02-3.01-0.39-5.74-0.9-6.06-0.54-0.35-0.97 1.98-1.03 5.46zm7.33-3.19c0.52 2.99 0.31 3.32-2.69 4.16-2.48 0.69-2.71 0.93-1 1 1.24 0.05 2.82 0.99 3.5 2.09 0.69 1.11 1.59 2.01 2 2 0.42 0 0.27-1.01-0.33-2.25-0.78-1.62-0.78-2.53 0.02-3.25 0.6-0.55 1.2-1.73 1.31-2.63 0.12-0.89-0.59-2.24-1.58-3-1.66-1.27-1.75-1.12-1.23 1.88zm12.59-2c0.01 0.41 0.8 1.55 1.75 2.52 1.46 1.5 1.53 2.15 0.47 4.25-0.91 1.81-2.06 2.48-4.25 2.48q-3 0-4-2c-0.55-1.1-0.73-3.24-0.41-4.75 0.44-2.12 0.33-2.41-0.49-1.25-0.59 0.83-1.09 2.63-1.11 4-0.03 1.38 0.75 3.28 1.73 4.22 0.98 0.95 2.91 1.76 4.28 1.79 1.38 0.03 3.28-0.75 4.23-1.73 0.95-0.98 1.74-2.79 1.75-4.03 0.01-1.24-0.88-3.15-1.98-4.25-1.1-1.1-1.98-1.66-1.97-1.25zm10.54-0.28c-0.49 0.48-0.82 2.81-0.73 5.2 0.15 4.05 0 4.31-2.31 4.08-1.37-0.14-2.34 0.2-2.17 0.75 0.16 0.55 1.17 1.14 2.22 1.32 1.06 0.18 2.49-0.27 3.18-1 0.76-0.79 1.15-3.3 0.99-6.27-0.17-2.89-0.65-4.58-1.18-4.08zm4.54 5.47l-0.11 6.06c7.17 0 8.8-0.41 8.5-1-0.27-0.55-1.85-1-3.5-1-2.33 0-3-0.44-3-2 0-1.52 0.78-2.08 3.25-2.34l3.25-0.34c-5.78-0.28-6.47-0.75-6.39-2.26 0.05-1.07-0.35-2.22-0.9-2.56-0.62-0.38-1.04 1.68-1.1 5.44zm11.35-3.72c-0.91 1.22-1.62 2.69-1.58 3.25 0.04 0.57 1.09 2.26 2.35 3.77 1.25 1.51 3.17 2.76 4.27 2.79 1.1 0.03 2.52-0.52 3.15-1.24 0.92-1.03 0.52-1.23-2-0.98-1.73 0.17-3.73-0.28-4.44-1-0.71-0.72-1.26-2.21-1.22-3.31 0.03-1.1 0.77-2.79 1.64-3.75 0.87-0.96 1.1-1.75 0.52-1.75-0.57 0-1.79 1-2.69 2.22zm26.2-1.49c-0.28 0.43-0.38 1.67-0.22 2.77 0.16 1.1 1.14 2.31 2.18 2.68 1.04 0.37 2.22 0.71 2.63 0.75 0.42 0.04 0.75-0.38 0.75-0.93 0-0.55-1.01-1.19-2.25-1.43-1.63-0.31-2.04-0.86-1.5-2 0.42-0.86 0.34-1.8-0.16-2.09-0.5-0.28-1.15-0.17-1.43 0.25zm20.45 5.21c-0.06 3.44 0.33 6.06 0.89 6.06 0.55 0 1-0.9 1-2 0-1.22 0.69-2.02 1.75-2.05 0.97-0.02 2.57 0.99 3.56 2.25 1.57 2 1.71 2.03 1.11 0.3-0.39-1.1-0.75-2.76-0.81-3.7-0.07-1.07-0.46-1.35-1.06-0.75-0.52 0.52-1.76 0.95-2.75 0.95-1.34 0-1.77-0.74-1.69-2.94 0.05-1.62-0.35-3.22-0.9-3.56-0.62-0.38-1.04 1.68-1.1 5.44zm12.02-1.69c-0.07 2.61 0.32 4.75 0.87 4.75 0.55 0 0.78 0.45 0.5 1-0.27 0.55 0.74 1.29 2.25 1.65 1.75 0.42 2.85 0.24 3-0.5 0.14-0.63 0.81-0.81 1.49-0.4q1.24 0.75 0.5-0.5c-0.4-0.69-0.29-1.25 0.26-1.25 0.55 0 1-2.02 1-4.5 0-2.62-0.46-4.5-1.1-4.5-0.63 0-1.17 2.04-1.25 4.74-0.12 3.91-0.5 4.8-2.15 5.06-1.1 0.18-2.45-0.18-3-0.8-0.55-0.62-1.28-3.01-1.62-5.32l-0.62-4.18zm42.67 0.5c-0.29 4.58-0.42 4.77-3.8 5.29-3.09 0.48-3.24 0.63-1.25 1.25 1.24 0.39 3.15 0.49 4.25 0.21 1.1-0.27 1.78-0.95 1.5-1.5-0.27-0.55-0.05-1 0.5-1 0.55 0 1-2.02 1-4.5 0-2.47-0.43-4.5-0.95-4.5-0.52 0-1.08 2.14-1.25 4.75zm5.3 0.69c-0.05 3.06 0.35 5.79 0.9 6.06 0.6 0.3 1.01-1.67 1.03-4.96 0.02-3.01-0.38-5.74-0.89-6.06-0.54-0.34-0.98 1.79-1.04 4.96zm6.67-4.31c0.69 0.75 1.26 2.16 1.25 3.12-0.01 1.11-1.2 2.08-3.27 2.66-2.48 0.69-2.72 0.93-1 1 1.24 0.05 2.7 0.99 3.25 2.09 0.55 1.1 1.45 2 2 2q1 0 0-2c-0.7-1.41-0.63-2.59 0.25-4 0.87-1.39 0.94-2.51 0.25-3.65-0.55-0.9-1.67-1.86-2.5-2.12-1.22-0.39-1.27-0.23-0.23 0.9zm-224.77 4.87c0 2.75 0.45 5.23 1 5.5 0.61 0.3 1-1.67 1-5 0-3.02-0.45-5.5-1-5.5-0.55 0-1 2.25-1 5zm150 0c0 2.75 0.45 5.23 1 5.5 0.61 0.3 1-1.67 1-5 0-3.02-0.45-5.5-1-5.5-0.55 0-1 2.25-1 5zm81.19 0.25l-0.19 5.75c6.2 0 8-0.45 8-1 0-0.55-1.57-1-3.5-1-2.83 0-3.5-0.38-3.5-2 0-1.52 0.78-2.08 3.25-2.34l3.25-0.34c-5.8-0.29-6.57-0.8-6.81-2.57-0.17-1.24-0.4 0.34-0.5 3.5zm-87.21 1.5c0.02 1.95-0.44 2.22-3.47 2-1.99-0.14-3.36 0.18-3.17 0.75 0.18 0.55 1.82 1 3.63 1 2.04 0 3.74-0.66 4.42-1.72 0.83-1.29 0.79-2.04-0.16-3-1.02-1.04-1.26-0.85-1.25 0.97zm-121.21 2.26c0.95 1.11 2.74 2.01 3.98 2 1.24-0.01 2.25-0.46 2.25-1.01 0-0.55-1.12-1-2.5-1-1.37 0-2.72-0.45-3-1-0.27-0.55-0.94-1-1.48-1-0.54 0-0.2 0.9 0.75 2.01zm162 0c0.95 1.11 2.52 2.01 3.48 2 0.96-0.01 2.43-0.23 3.25-0.51 0.83-0.27 1.5-0.84 1.49-1.25 0-0.41-1.46-0.58-3.25-0.37-1.78 0.21-3.58-0.13-3.99-0.75-0.41-0.62-1.19-1.13-1.73-1.13-0.54 0-0.2 0.9 0.75 2.01z"/>
		<path id="Path 4" class="s3" d="m181.5 382.07c-1.1 0.51-2.56 2.06-3.25 3.43l-1.25 2.5c13.5 0 15-0.3 15-1.5 0-0.82-1.24-2.42-2.75-3.53-1.51-1.12-3.43-1.99-4.25-1.94-0.82 0.06-2.4 0.53-3.5 1.04zm26 1.38q-2.41 2.46-2.45 6c-0.04 2.49 0.69 4.29 2.45 6.05 1.38 1.38 3.51 2.52 4.75 2.53 1.24 0.02 3.49-0.88 5-2 2.2-1.62 2.75-2.83 2.75-6.03 0-2.93-0.67-4.67-2.5-6.5-1.38-1.37-3.65-2.5-5.05-2.5-1.4 0-3.63 1.1-4.95 2.45zm89.01 0.2c-1.49 1.64-2.42 3.91-2.46 6-0.03 2.29 0.74 4.14 2.45 5.85 1.37 1.38 3.62 2.5 5 2.5 1.37 0 3.74-1.09 5.25-2.41 2.06-1.81 2.75-3.33 2.75-6.09 0-2.76-0.69-4.28-2.75-6.09-1.51-1.32-3.9-2.41-5.3-2.41-1.48 0-3.55 1.11-4.94 2.65zm-180.44 35.28c-0.05 2.29 0.37 3.07 1.68 3.05 0.96 0 2.35-0.34 3.07-0.75 0.73-0.4 1.18-1.63 0.99-2.73-0.21-1.31-1.25-2.11-3-2.32-2.36-0.28-2.67 0.03-2.74 2.75zm45.97-1.77c-0.79 0.68-1.36 2.16-1.26 3.29 0.1 1.13 0.76 2.62 1.45 3.32 0.7 0.69 2.51 1.26 4.02 1.25 2.17-0.02 2.88-0.6 3.38-2.77 0.35-1.51 0.2-3.43-0.35-4.25-0.54-0.82-2.07-1.63-3.39-1.79-1.33-0.16-3.06 0.26-3.85 0.95zm32.03 1.77c-0.05 2.29 0.37 3.07 1.68 3.05 0.96 0 2.35-0.34 3.07-0.75 0.73-0.4 1.18-1.63 0.99-2.73-0.21-1.31-1.25-2.11-3-2.32-2.36-0.28-2.67 0.03-2.74 2.75zm12 0c-0.05 2.29 0.37 3.07 1.68 3.05 0.96 0 2.35-0.34 3.07-0.75 0.73-0.4 1.18-1.63 0.99-2.73-0.21-1.31-1.25-2.11-3-2.32-2.36-0.28-2.67 0.03-2.74 2.75zm12.43-1.36c-0.9 0.87-1.61 1.99-1.57 2.5 0.04 0.51 0.52 1.83 1.07 2.93q1 2 4 2c2.19 0 3.34-0.67 4.25-2.48 1.08-2.14 0.98-2.75-0.75-4.53-1.1-1.13-2.76-2.04-3.68-2.02-0.92 0.02-2.42 0.74-3.32 1.6zm80.5 1.43c0 2.17 0.48 3.01 1.75 3.04 0.96 0.03 2.31-0.65 3-1.5 1-1.23 1-1.85 0-3.08-0.69-0.85-2.04-1.53-3-1.5-1.27 0.03-1.75 0.87-1.75 3.04zm60.07-0.07c-0.05 2.29 0.37 3.07 1.68 3.05 0.96 0 2.35-0.34 3.07-0.75 0.73-0.4 1.18-1.63 0.99-2.73-0.21-1.31-1.25-2.11-3-2.32-2.36-0.28-2.67 0.03-2.74 2.75z"/>
		<path id="Path 5" class="s2" d="m327 276.27l-2.5 1.11c4.51 0.51 5.68 1.34 6 2.62 0.27 1.1 1.29 2.27 2.25 2.6 0.96 0.33 3.21-0.12 5-1 1.79-0.88 3.81-1.61 4.5-1.63 0.69-0.02-0.37-1.03-2.34-2.25-1.98-1.22-5.13-2.29-7-2.39-1.88-0.09-4.54 0.34-5.91 0.94zm-207.78 109.98l0.21 12.25 0.57-23.5 13.5-0.61-14.5-0.39zm145.21-11c-0.28 0.69-0.38 3.05-0.22 5.25l0.29 4c10.51 0.48 13.88 0.1 15.28-0.7q2.28-1.3 2.25-4.05c-0.01-1.51-0.7-3.42-1.53-4.25-1.04-1.05-3.61-1.5-8.52-1.5q-7.02 0-7.55 1.25zm-113.41 12c-0.01 1.54 0.96 1.73 8.23 1.55l8.25-0.2c-11.85-0.57-15.3-1.22-15.73-1.91q-0.73-1.18-0.75 0.56z"/>
		<path id="Path 6" class="s3" d="m304.86 151.57c-1.16 1.34-1.03 2.22 0.89 6 1.53 3.01 2.89 4.43 4.25 4.43 1.1 0 2.45-0.9 3-2 0.55-1.1 1-2.56 1-3.25 0.01-0.69-1.12-2.49-2.5-4-1.37-1.51-3.12-2.75-3.89-2.75-0.76 0-2 0.71-2.75 1.57zm18.14 9.43c0 0.55 1.35 1.9 3 3 1.65 1.1 3.45 2 4 2 0.55 0 1-0.68 1-1.5 0-0.82-1.01-2.18-2.25-3.01-1.24-0.83-3.04-1.5-4-1.5-0.96 0.01-1.75 0.46-1.75 1.01zm22.89 1.55c-1.86 1.3-4.07 2.92-4.89 3.61-1.1 0.92-1.17 1.33-0.25 1.55 0.69 0.16 2.49-0.33 4-1.09 1.51-0.76 3.31-2.11 4-3 0.69-0.89 1.09-2.03 0.89-2.52-0.2-0.5-1.88 0.16-3.75 1.45zm6.51 3.69c-1.05 0.59-3.62 2.46-5.71 4.17-2.1 1.7-3.45 3.46-3 3.92 0.44 0.45 2.16 0.15 3.81-0.67 1.65-0.81 4.24-2.87 5.75-4.57 1.51-1.7 2.37-3.28 1.9-3.51-0.47-0.23-1.71 0.07-2.75 0.66zm-20.4 109.96c-0.77 0.66-1.33 1.67-1.24 2.25 0.08 0.58 0.87 1.73 1.75 2.55 1.46 1.36 1.58 1.15 1.3-2.25-0.17-2.06-0.33-3.75-0.36-3.75-0.03 0-0.68 0.54-1.45 1.2zm-212.01 110.55l-0.01 11.75c10.48-0.91 14.64-1.88 16.02-2.74 1.37-0.86 3.13-3.08 3.9-4.92 0.85-2.02 1.16-4.72 0.79-6.84-0.37-2.08-1.85-4.62-3.66-6.25-2.7-2.45-3.8-2.75-10.03-2.75h-7zm34.57-3.68c-1.52 1.14-2.71 2.72-2.66 3.5 0.08 1.1 1.81 1.43 7.6 1.43 7.41 0 7.49-0.03 6.49-2.25-0.55-1.24-2.12-2.81-3.5-3.5-1.37-0.69-3.1-1.25-3.84-1.25-0.74 0-2.58 0.93-4.09 2.07zm168.19 1.18c-2.65 2.79-3 3.75-2.45 6.75 0.35 1.93 1.66 4.31 2.92 5.29 1.25 0.99 3.54 1.78 5.07 1.75 1.62-0.02 3.83-1.09 5.25-2.54 1.35-1.37 2.46-3.62 2.46-5 0-1.37-0.45-3.51-1.01-4.75-0.55-1.24-2.12-2.81-3.5-3.5-1.37-0.69-3.2-1.25-4.07-1.25-0.87 0-2.97 1.46-4.67 3.25zm-57.75 8.25v5.5c12.41-0.42 15.48-1.01 16.56-2 1.11-1.02 1.45-2.38 1.04-4.25-0.37-1.67-1.59-3.14-3.1-3.75-1.38-0.55-5.2-1-8.5-1h-6zm0-13v4.5c10.92 0 14.08-0.49 14.81-1.25 0.67-0.69 1.22-2.15 1.22-3.25 0-1.1-0.57-2.57-1.27-3.27-0.77-0.77-3.88-1.26-8.01-1.25l-6.75 0.02z"/>
	</g>
</svg>